<svg width="400" height="400" viewBox="0 0 400 400" fill="none" xmlns="http://www.w3.org/2000/svg">
<path fill-rule="evenodd" clip-rule="evenodd" d="M200 35.0881L166.883 92.4578C175.562 86.0472 187.165 79.9528 199.913 79.9528C200.01 79.9528 200.106 79.9531 200.203 79.9538L200.204 79.9528L200.205 79.9538C212.987 80.0471 224.602 86.241 233.248 92.6848L200 35.0881ZM193.803 91.9711C186.161 93.502 178.765 97.6674 172.431 102.541C170.429 104.081 168.619 105.626 167.037 107.071C168.619 108.515 170.429 110.06 172.431 111.6C178.765 116.474 186.161 120.639 193.803 122.17C192.174 117.854 190.875 112.66 190.875 107.071C190.875 101.481 192.174 96.2869 193.803 91.9711ZM206.655 122.037C208.26 117.748 209.533 112.603 209.533 107.071C209.533 101.539 208.26 96.3934 206.655 92.104C214.072 93.7328 221.236 97.8021 227.394 102.541C229.396 104.081 231.206 105.626 232.788 107.071C231.206 108.515 229.396 110.06 227.394 111.6C221.236 116.339 214.072 120.408 206.655 122.037ZM200.203 134.187L200.204 134.189L200.205 134.187C219.816 134.044 236.679 119.541 244.286 111.807L298.432 205.608H101.568L155.649 111.919C163.346 119.719 180.271 134.189 199.913 134.189C199.968 134.189 200.023 134.188 200.079 134.188L200.203 134.187ZM204.932 20.848C202.74 17.0507 197.26 17.0507 195.068 20.848L86.7715 208.456C84.5795 212.253 87.3195 217 91.7035 217H308.296C312.681 217 315.421 212.253 313.229 208.456L204.932 20.848ZM140.748 153.258C145.894 146.292 152.895 142.386 162.161 141.312C167.337 140.712 174.055 142.306 179.162 145.285C175.153 146.562 172.412 149.966 172.038 153.741C166.969 151.429 160.939 151.558 155.834 154.175C152.727 155.768 149.543 159.039 147.943 162.281C146.56 165.084 146.011 167.394 146.011 170.416C146.011 173.438 146.56 175.748 147.943 178.55C149.543 181.793 152.727 185.063 155.834 186.656C161.435 189.529 168.447 189.386 173.655 186.295C174.518 185.782 178.698 182.272 182.943 178.495L184.406 177.193L190.228 186.56C185.626 190.602 182.288 193.486 181.5 194.082C178.533 196.327 174.322 198.157 170.049 199.056C167.517 199.589 162.11 199.661 159.489 199.197C149.68 197.459 141.364 190.91 137.48 181.866C133.388 172.339 134.621 161.55 140.748 153.258ZM215.99 178.552C216.272 178.385 216.477 178.305 216.617 178.305C217.063 178.305 218.154 179.114 220.308 181.041C221.99 182.546 224.251 184.435 225.335 185.239C230.856 189.337 238.279 189.884 244.576 186.655C247.679 185.063 250.864 181.791 252.463 178.55C253.847 175.748 254.395 173.438 254.395 170.416C254.395 167.394 253.847 165.084 252.463 162.281C250.863 159.039 247.679 155.768 244.572 154.175C239.783 151.719 233.998 151.461 229.158 153.363C228.619 149.564 225.688 146.207 221.506 145.119C223.688 143.917 226.254 142.811 228.189 142.3C235.701 140.313 242.925 141.127 249.827 144.737C254.189 147.019 257.971 150.475 260.643 154.623C269 167.592 265.873 184.47 253.386 193.803C249.766 196.509 244.84 198.561 240.456 199.189C237.147 199.664 231.677 199.38 228.576 198.572C225.636 197.805 221.135 195.694 218.906 194.035C217.042 192.647 213.001 189.073 210.782 186.932L215.99 178.552ZM193.755 181.893C196.688 187.002 204.045 187.002 206.978 181.893L219.824 159.512C222.748 154.416 219.078 148.058 213.212 148.058H187.52C181.654 148.058 177.984 154.416 180.909 159.512L193.755 181.893ZM91.001 249.501L73.8726 244C70.6056 252.86 65.2615 263.381 59.8777 272.078C54.1667 272.257 48.8176 272.409 44 272.524L44.8156 287.499C47.9266 287.375 51.2749 287.243 54.8152 287.104L54.8991 287.101L54.9218 287.1L54.9226 287.1L55.1183 287.092C73.2982 286.379 96.4777 285.469 118.585 284.315C121.097 287.499 123.2 290.535 124.646 293.204L137.594 283.322C132.293 274.358 119.956 262.642 110.066 254.493L98.3417 263.152C100.853 265.379 103.468 267.839 106.049 270.41C96.6247 270.782 87.0825 271.145 77.9485 271.47C82.4459 264.647 87.0105 257.006 91.001 249.501ZM316.728 244.917H301.537V253.678H295.425C294.177 250.904 292.204 247.627 290.424 245.121L276.456 247.464C277.586 249.327 278.779 251.566 279.757 253.678H265.139V271.607H279.005V262.541H339.26V271.607H353.839V253.678H339.625C341.102 251.807 342.698 249.662 344.358 247.26L328.453 245.019C327.412 247.618 325.634 250.88 323.934 253.678H316.728V244.917ZM305.003 327.229L291.545 328.247C292.361 332.322 292.973 337.721 293.075 340.981L307.246 339.657C307.042 336.397 306.023 331.202 305.003 327.229ZM311.63 328.451L325.598 326.719C327.229 330.387 329.166 335.277 329.88 338.435L315.199 340.472C314.689 337.416 313.16 332.22 311.63 328.451ZM344.46 324.784L330.288 328.451C334.468 332.526 339.668 338.435 341.809 342L357 338.129C354.145 334.156 348.64 328.655 344.46 324.784ZM204.68 295.445H192.583C190.846 316.329 186.419 332.738 159.005 342C157.373 338.027 153.295 332.017 150.033 328.96C173.224 322.145 175.461 310.677 176.682 295.445H152.989V281.489H191.324V245.019H206.413V281.489H245.768V295.445H219.667V323.154C219.667 327.025 220.075 327.534 223.032 327.534H230.169C233.125 327.534 233.635 325.395 234.145 311.846C237.204 314.291 243.729 316.838 247.603 317.857C246.176 336.295 242.505 341.389 231.494 341.389H220.687C207.841 341.389 204.68 336.805 204.68 323.256V295.445ZM159.718 254.085L173.074 248.992C177.458 256.632 182.25 266.615 183.881 273.441L169.404 279.247C168.078 272.626 163.796 262.133 159.718 254.085ZM240.976 253.78L225.173 248.482C222.726 256.632 218.138 266.921 214.06 273.644L227.11 278.534C231.29 272.422 236.388 262.948 240.976 253.78ZM69.3866 341.694V337.823H108.231V341.694H124.238V295.547H54.1954V341.694H69.3866ZM69.3866 323.561H108.231V309.707H69.3866V323.561ZM281.86 264.884H336.813V279.145H281.86V264.884ZM295.114 273.441V270.588H322.743V273.441H295.114ZM301.537 306.243H270.645V313.985H301.537V316.328H263.508V324.682H274.271C271.381 329.327 266.541 333.818 262.182 336.193L275.64 341.796C280.432 338.536 285.326 333.443 288.385 328.349L275.905 324.682H355.369V316.328H315.912V313.985H350.067V306.243H315.912V303.9H346.805V281.489H273.601V303.9H301.537V306.243ZM315.912 297.279H321.422L316.83 295.343C318.359 293.102 320.296 290.046 321.214 288.008L330.39 291.37C328.635 292.998 327.074 294.51 325.704 295.836L325.701 295.839C325.176 296.347 324.679 296.829 324.211 297.279H332.429V288.008H321.214H315.912V297.279ZM301.537 297.279V288.008H287.059V297.279H291.556C290.803 295.546 289.72 293.525 288.691 291.981L296.643 288.212C298.172 290.148 299.906 293 300.517 294.834L295.798 297.279H301.537ZM347.633 370.591V376.723H351.783V370.591L357.029 359.353H352.669L351.224 363.223C351.182 363.334 351.141 363.445 351.099 363.555L351.048 363.691C350.967 363.906 350.886 364.12 350.806 364.333L350.804 364.339C350.462 365.242 350.126 366.132 349.778 367.094H349.685C349.546 366.711 349.411 366.339 349.279 365.973C348.943 365.047 348.62 364.159 348.286 363.223L346.84 359.353H342.41L347.633 370.591ZM331.864 376.723V362.827H327.177V359.353H340.747V362.827H336.037V376.723H331.864ZM310.793 359.353V376.723H314.967V370.614H316.973L320.166 376.723H324.83L320.95 369.853C322.748 368.994 323.944 367.375 323.944 364.832C323.944 360.635 320.866 359.353 317.159 359.353H310.793ZM316.832 367.327H314.967V362.664H316.832C318.814 362.664 319.887 363.2 319.887 364.832C319.887 366.464 318.814 367.327 316.832 367.327ZM291.344 376.723L296.73 359.353H301.72L307.106 376.723H302.722L301.726 372.736H296.584L295.588 376.723H291.344ZM300.554 368.05L300.921 369.518H297.389L297.756 368.05C298.183 366.388 298.631 364.446 299.038 362.681L299.039 362.677L299.039 362.676L299.085 362.477H299.178C299.399 363.314 299.614 364.219 299.829 365.123L299.829 365.124L299.829 365.125C300.069 366.133 300.308 367.14 300.554 368.05ZM277.143 359.353V376.723H281.317V370.964H283.346C287.029 370.964 290.2 369.145 290.2 365.018C290.2 360.728 287.053 359.353 283.252 359.353H277.143ZM283.136 367.677H281.317V362.664H283.019C285.024 362.664 286.143 363.27 286.143 365.018C286.143 366.721 285.164 367.677 283.136 367.677ZM258.796 377.05C253.993 377.05 250.192 374.019 250.192 368.143C250.192 362.361 254.086 359.05 258.726 359.05C261.267 359.05 263.086 360.122 264.275 361.311L262.083 363.969C261.221 363.2 260.311 362.617 258.866 362.617C256.301 362.617 254.459 364.622 254.459 368.003C254.459 371.454 255.998 373.459 259.239 373.459C259.845 373.459 260.498 373.296 260.871 373.016V370.218H258.12V366.814H264.578V374.928C263.366 376.094 261.221 377.05 258.796 377.05ZM231.314 359.353V376.723H235.277V370.964C235.277 369.418 235.088 367.719 234.913 366.158C234.851 365.601 234.79 365.061 234.741 364.552H234.858L236.56 368.353L240.85 376.723H245.094V359.353H241.13V365.112C241.13 366.832 241.37 368.841 241.572 370.527C241.6 370.761 241.627 370.988 241.653 371.208C241.665 371.315 241.678 371.42 241.689 371.524H241.573L239.871 367.677L235.557 359.353H231.314ZM221.297 376.723V359.353H225.471V376.723H221.297ZM201.626 359.353V376.723H205.59V370.964C205.59 369.418 205.4 367.719 205.225 366.158C205.163 365.601 205.102 365.061 205.053 364.552H205.17L206.872 368.353L211.162 376.723H215.406V359.353H211.442V365.112C211.442 366.832 211.682 368.841 211.884 370.527C211.926 370.875 211.966 371.209 212.002 371.524H211.885L210.183 367.677L205.869 359.353H201.626ZM191.609 376.723V359.353H195.783V376.723H191.609ZM171.688 359.353V376.723H175.861V369.588H181.574V376.723H185.724V359.353H181.574V365.974H175.861V359.353H171.688ZM160.317 377.05C158.055 377.05 155.63 376.21 153.835 374.555L156.213 371.687C157.426 372.736 159.035 373.459 160.41 373.459C161.949 373.459 162.672 372.876 162.672 371.944C162.672 371.009 161.842 370.662 160.522 370.11L160.497 370.1C160.408 370.062 160.317 370.024 160.224 369.985L158.009 369.052C156.19 368.33 154.488 366.814 154.488 364.296C154.488 361.381 157.099 359.05 160.783 359.05C162.788 359.05 164.91 359.819 166.426 361.335L164.351 363.946C163.208 363.083 162.136 362.617 160.783 362.617C159.501 362.617 158.731 363.13 158.731 364.039C158.731 364.973 159.706 365.356 161.131 365.915L161.343 365.998L163.511 366.861C165.656 367.723 166.939 369.169 166.939 371.617C166.939 374.508 164.514 377.05 160.317 377.05ZM128.066 359.353V376.723H132.03V370.964C132.03 369.418 131.84 367.719 131.666 366.158L131.666 366.157C131.603 365.6 131.543 365.061 131.494 364.552H131.611L133.313 368.353L137.603 376.723H141.846V359.353H137.883V365.112C137.883 366.832 138.123 368.841 138.325 370.527L138.325 370.528C138.366 370.875 138.406 371.209 138.442 371.524H138.326L136.623 367.677L132.31 359.353H128.066ZM108.617 376.723L114.003 359.353H118.993L124.379 376.723H119.995L118.999 372.736H113.857L112.861 376.723H108.617ZM117.827 368.05L118.194 369.518H114.662L115.029 368.05C115.455 366.389 115.903 364.449 116.31 362.684L116.311 362.683L116.311 362.681L116.311 362.681L116.311 362.68L116.358 362.477H116.451C116.672 363.314 116.887 364.219 117.102 365.123L117.102 365.123C117.342 366.132 117.581 367.14 117.827 368.05ZM85.4977 359.353L88.6454 376.723H93.7982L95.3138 369.169C95.4677 368.371 95.6047 367.549 95.7402 366.736L95.7402 366.736C95.8305 366.194 95.92 365.657 96.0133 365.135H96.1065C96.2697 366.441 96.5029 367.84 96.7827 369.169L98.3449 376.723H103.591L106.599 359.353H102.658L101.516 367.28C101.432 368 101.344 368.727 101.255 369.461L101.254 369.473L101.254 369.475L101.253 369.475C101.122 370.566 100.988 371.67 100.863 372.783H100.746C100.598 371.99 100.458 371.198 100.319 370.412C100.131 369.349 99.945 368.299 99.7438 367.28L97.9485 359.353H94.4278L92.6558 367.28C92.306 369.075 91.9563 370.917 91.6298 372.783H91.5366C91.3035 370.918 91.0703 369.099 90.8372 367.281L90.8371 367.28L89.7412 359.353H85.4977ZM77.1363 376.723V359.353H81.3099V376.723H77.1363ZM63.0732 359.353L57.6872 376.723H61.9307L62.9275 372.736H68.0687L69.0654 376.723H73.4488L68.0628 359.353H63.0732ZM67.2643 369.518L66.897 368.05C66.6511 367.14 66.4116 366.132 66.1717 365.123L66.1717 365.123C65.9568 364.219 65.7417 363.314 65.5214 362.477H65.4281L65.3815 362.679C64.9741 364.445 64.5258 366.388 64.0991 368.05L63.7319 369.518H67.2643ZM47.6865 376.723V362.827H43V359.353H56.5699V362.827H51.8601V376.723H47.6865Z" fill="#B4875E"/>
</svg>
