<svg width="500" height="160" viewBox="0 0 500 160" fill="none" xmlns="http://www.w3.org/2000/svg">
<path fill-rule="evenodd" clip-rule="evenodd" d="M90.1429 24.5924L67.7331 63.5116C73.6061 59.1627 81.4577 55.0283 90.0837 55.0283C90.1493 55.0283 90.2149 55.0285 90.2804 55.029L90.281 55.0283L90.2815 55.029C98.9313 55.0923 106.791 59.2941 112.641 63.6655L90.1429 24.5924ZM85.9495 63.1814C80.7784 64.22 75.773 67.0457 71.4871 70.3519C70.1327 71.3966 68.9078 72.445 67.8369 73.4248C68.9078 74.4046 70.1327 75.453 71.4871 76.4977C75.773 79.8039 80.7784 82.6296 85.9495 83.6682C84.8472 80.7404 83.968 77.2166 83.968 73.4248C83.968 69.633 84.8472 66.1092 85.9495 63.1814ZM94.6463 83.578C95.7326 80.6682 96.594 77.1777 96.594 73.4248C96.594 69.6719 95.7326 66.1814 94.6463 63.2716C99.6651 64.3765 104.513 67.1371 108.68 70.3519C110.035 71.3966 111.26 72.445 112.33 73.4248C111.26 74.4046 110.035 75.453 108.68 76.4977C104.513 79.7125 99.6651 82.4731 94.6463 83.578ZM90.2804 91.8206L90.281 91.8213L90.2815 91.8206C103.552 91.7235 114.963 81.8849 120.111 76.638L156.751 140.272H23.5345L60.1312 76.7139C65.3396 82.0055 76.7925 91.8213 90.0837 91.8213C90.1212 91.8213 90.1587 91.8213 90.1962 91.8211L90.2804 91.8206ZM93.4803 14.9321C91.997 12.356 88.2887 12.356 86.8054 14.9321L13.5221 142.204C12.0387 144.78 13.8929 148 16.8595 148H163.426C166.393 148 168.247 144.78 166.764 142.204L93.4803 14.9321ZM50.0472 104.758C53.5295 100.032 58.2674 97.3827 64.5375 96.6538C68.0398 96.2467 72.5861 97.328 76.0422 99.3489C73.329 100.215 71.4745 102.524 71.2209 105.086C67.7911 103.517 63.7104 103.604 60.2562 105.38C58.1538 106.461 55.9993 108.68 54.9165 110.879C53.9805 112.78 53.6092 114.348 53.6092 116.398C53.6092 118.448 53.9805 120.015 54.9165 121.916C55.9993 124.116 58.1538 126.334 60.2562 127.415C64.0464 129.364 68.791 129.267 72.3153 127.17C72.8994 126.822 75.7277 124.441 78.6004 121.878L79.5905 120.995L83.5305 127.35C80.4162 130.092 78.157 132.048 77.6242 132.452C75.6164 133.976 72.767 135.217 69.8755 135.827C68.1622 136.189 64.5029 136.237 62.7295 135.922C56.0916 134.743 50.4643 130.301 47.8359 124.166C45.0672 117.702 45.9011 110.383 50.0472 104.758ZM100.963 121.917C101.154 121.804 101.293 121.75 101.387 121.75C101.689 121.75 102.427 122.298 103.885 123.606C105.023 124.627 106.554 125.908 107.287 126.454C111.023 129.234 116.046 129.604 120.307 127.414C122.407 126.334 124.562 124.114 125.644 121.916C126.58 120.015 126.952 118.448 126.952 116.398C126.952 114.348 126.58 112.78 125.644 110.879C124.562 108.68 122.407 106.461 120.305 105.38C117.063 103.714 113.149 103.539 109.874 104.829C109.509 102.252 107.526 99.9747 104.696 99.2365C106.173 98.4211 107.909 97.671 109.218 97.3239C114.301 95.9761 119.19 96.5283 123.86 98.9774C126.812 100.525 129.371 102.87 131.18 105.684C136.834 114.482 134.718 125.932 126.268 132.264C123.819 134.099 120.486 135.491 117.519 135.917C115.28 136.239 111.579 136.046 109.48 135.498C107.491 134.979 104.444 133.546 102.937 132.421C101.675 131.479 98.9403 129.054 97.4389 127.602L100.963 121.917ZM85.917 124.183C87.9016 127.65 92.8799 127.65 94.8645 124.183L103.557 109C105.536 105.544 103.053 101.23 99.0836 101.23H81.6979C77.7286 101.23 75.245 105.544 77.2241 109L85.917 124.183Z" fill="#B4875E"/>
<path d="M242.362 24.5851L226.583 19.4287C223.573 27.734 218.65 37.5955 213.691 45.7481C208.43 45.9155 203.502 46.0577 199.064 46.1656L199.815 60.2025C202.679 60.086 205.761 59.9629 209.02 59.8328L209.027 59.8325L209.104 59.8294L209.125 59.8286L209.306 59.8214C226.054 59.1527 247.407 58.3 267.772 57.2181C270.086 60.2021 272.024 63.0483 273.356 65.5499L285.284 56.2874C280.4 47.8844 269.035 36.9032 259.925 29.2641L249.124 37.3806C251.438 39.4688 253.846 41.7741 256.224 44.1845C247.542 44.5324 238.752 44.8727 230.338 45.1778C234.481 38.7819 238.686 31.6202 242.362 24.5851Z" fill="#B4875E"/>
<path d="M450.303 20.2881H436.308V28.5002H430.679C429.529 25.9004 427.711 22.8288 426.071 20.4791L413.204 22.6753C414.245 24.4221 415.344 26.5209 416.245 28.5002H402.779V45.3062H415.552V36.8077H471.059V45.3062H484.49V28.5002H471.395C472.756 26.747 474.226 24.736 475.755 22.4843L461.104 20.3836C460.145 22.8199 458.507 25.8779 456.941 28.5002H450.303V20.2881Z" fill="#B4875E"/>
<path d="M439.502 97.4431L427.104 98.3981C427.856 102.218 428.419 107.279 428.513 110.334L441.568 109.093C441.38 106.037 440.441 101.167 439.502 97.4431Z" fill="#B4875E"/>
<path d="M445.607 98.589L458.474 96.9657C459.976 100.403 461.761 104.987 462.418 107.947L448.894 109.857C448.424 106.992 447.015 102.122 445.607 98.589Z" fill="#B4875E"/>
<path d="M475.849 95.1515L462.794 98.589C466.645 102.409 471.435 107.947 473.407 111.289L487.401 107.661C484.772 103.936 479.7 98.78 475.849 95.1515Z" fill="#B4875E"/>
<path d="M347.083 67.6506H335.94C334.34 87.2261 330.261 102.607 305.007 111.289C303.504 107.565 299.747 101.931 296.742 99.0664C318.106 92.6779 320.167 81.9281 321.291 67.6506H299.466V54.5686H334.78V20.3836H348.68V54.5686H384.934V67.6506H360.89V93.6236C360.89 97.2521 361.266 97.7296 363.989 97.7296H370.564C373.287 97.7296 373.757 95.7244 374.227 83.0243C377.044 85.3161 383.055 87.7033 386.624 88.6582C385.309 105.942 381.928 110.716 371.785 110.716H361.829C349.995 110.716 347.083 106.419 347.083 93.7191V67.6506Z" fill="#B4875E"/>
<path d="M305.664 28.8821L317.968 24.1076C322.007 31.2693 326.421 40.6273 327.924 47.025L314.587 52.4679C313.366 46.2611 309.421 36.4257 305.664 28.8821Z" fill="#B4875E"/>
<path d="M380.519 28.5956L365.962 23.6302C363.708 31.2693 359.481 40.9137 355.724 47.216L367.746 51.7994C371.597 46.0701 376.293 37.1896 380.519 28.5956Z" fill="#B4875E"/>
<path d="M478.773 138.089V143.837H482.596V138.089L487.429 127.555H483.412L482.08 131.183L481.966 131.493L481.918 131.621C481.844 131.823 481.769 132.023 481.695 132.223L481.693 132.228C481.379 133.075 481.069 133.91 480.749 134.811H480.663C480.535 134.452 480.411 134.103 480.288 133.76C479.979 132.892 479.682 132.06 479.374 131.183L478.042 127.555H473.961L478.773 138.089Z" fill="#B4875E"/>
<path d="M464.246 143.837V130.811H459.929V127.555H472.429V130.811H468.091V143.837H464.246Z" fill="#B4875E"/>
<path d="M396.935 144.143C392.51 144.143 389.009 141.302 389.009 135.794C389.009 130.374 392.596 127.271 396.871 127.271C399.212 127.271 400.887 128.276 401.983 129.391L399.964 131.882C399.169 131.161 398.331 130.615 397 130.615C394.637 130.615 392.94 132.494 392.94 135.663C392.94 138.898 394.358 140.777 397.343 140.777C397.902 140.777 398.503 140.624 398.847 140.362V137.739H396.312V134.549H402.262V142.154C401.145 143.247 399.169 144.143 396.935 144.143Z" fill="#B4875E"/>
<path d="M371.619 127.555V143.837H375.27V138.439C375.27 136.989 375.095 135.397 374.934 133.934C374.877 133.411 374.821 132.905 374.776 132.428H374.883L376.451 135.991L380.403 143.837H384.313V127.555H380.661V132.953C380.661 134.565 380.883 136.448 381.068 138.029C381.094 138.248 381.119 138.461 381.143 138.667C381.155 138.767 381.166 138.866 381.177 138.963H381.069L379.501 135.357L375.528 127.555H371.619Z" fill="#B4875E"/>
<path d="M362.391 143.837V127.555H366.236V143.837H362.391Z" fill="#B4875E"/>
<path d="M344.27 127.555V143.837H347.921V138.439C347.921 136.989 347.746 135.397 347.585 133.934C347.528 133.411 347.472 132.905 347.427 132.428H347.535L349.103 135.991L353.055 143.837H356.964V127.555H353.313V132.953C353.313 134.565 353.534 136.448 353.72 138.029C353.758 138.355 353.795 138.668 353.828 138.963H353.721L352.153 135.357L348.179 127.555H344.27Z" fill="#B4875E"/>
<path d="M335.042 143.837V127.555H338.887V143.837H335.042Z" fill="#B4875E"/>
<path d="M316.691 127.555V143.837H320.535V137.149H325.798V143.837H329.621V127.555H325.798V133.761H320.535V127.555H316.691Z" fill="#B4875E"/>
<path d="M306.216 144.143C304.132 144.143 301.899 143.356 300.245 141.804L302.436 139.116C303.553 140.1 305.035 140.777 306.302 140.777C307.719 140.777 308.385 140.231 308.385 139.357C308.385 138.481 307.621 138.156 306.404 137.638L306.382 137.628C306.3 137.593 306.216 137.558 306.13 137.521L304.089 136.647C302.414 135.969 300.846 134.549 300.846 132.188C300.846 129.456 303.252 127.271 306.645 127.271C308.493 127.271 310.447 127.992 311.843 129.413L309.932 131.86C308.879 131.052 307.891 130.615 306.645 130.615C305.464 130.615 304.755 131.095 304.755 131.948C304.755 132.823 305.653 133.182 306.966 133.706L307.161 133.784L309.159 134.592C311.135 135.401 312.316 136.756 312.316 139.051C312.316 141.761 310.082 144.143 306.216 144.143Z" fill="#B4875E"/>
<path d="M276.507 127.555V143.837H280.158V138.439C280.158 136.989 279.983 135.397 279.822 133.934C279.765 133.412 279.709 132.905 279.664 132.428H279.771L281.339 135.991L285.291 143.837H289.201V127.555H285.549V132.953C285.549 134.565 285.771 136.448 285.956 138.029L285.957 138.03C285.995 138.355 286.032 138.668 286.065 138.963H285.957L284.389 135.357L280.416 127.555H276.507Z" fill="#B4875E"/>
<path d="M237.292 127.555L240.192 143.837H244.938L246.335 136.756C246.476 136.008 246.603 135.237 246.727 134.476C246.811 133.968 246.893 133.464 246.979 132.975H247.065C247.215 134.199 247.43 135.51 247.688 136.756L249.127 143.837H253.96L256.73 127.555H253.1L252.048 134.985C251.971 135.659 251.89 136.339 251.808 137.026L251.808 137.029L251.806 137.041L251.806 137.042C251.685 138.065 251.562 139.1 251.447 140.143H251.339C251.202 139.4 251.073 138.658 250.945 137.921C250.772 136.925 250.601 135.941 250.416 134.985L248.762 127.555H245.518L243.886 134.985C243.564 136.668 243.242 138.395 242.941 140.143H242.855C242.64 138.395 242.426 136.691 242.211 134.986L241.201 127.555H237.292Z" fill="#B4875E"/>
<path d="M229.589 143.837V127.555H233.434V143.837H229.589Z" fill="#B4875E"/>
<path d="M202.46 143.837V130.811H198.143V127.555H210.644V130.811H206.305V143.837H202.46Z" fill="#B4875E"/>
<path fill-rule="evenodd" clip-rule="evenodd" d="M222.45 107.374V111.003H208.456V67.7461H272.98V111.003H258.234V107.374H222.45ZM222.45 94.0056H258.234V81.0191H222.45V94.0056Z" fill="#B4875E"/>
<path fill-rule="evenodd" clip-rule="evenodd" d="M407.85 77.7725H436.308V75.5762H410.574V54.5687H478.009V75.5762H449.551V77.7725H481.015V85.0296H449.551V87.2258H485.899V95.0559H412.697L424.193 98.4935C421.375 103.268 416.867 108.042 412.452 111.098L400.055 105.846C404.07 103.619 408.529 99.4097 411.191 95.0559H401.276V87.2258H436.308V85.0296H407.85V77.7725ZM436.308 69.3694V60.6799H422.972V69.3694H427.114C426.421 67.7451 425.423 65.8509 424.474 64.404L431.8 60.8709C433.209 62.6852 434.806 65.3589 435.369 67.0777L431.022 69.3694H436.308ZM454.435 60.6799L462.888 63.8311C461.272 65.3568 459.833 66.7745 458.572 68.0174L458.569 68.0203C458.085 68.4966 457.627 68.9481 457.196 69.3694H464.766V60.6799H454.435ZM454.435 60.6799H449.551V69.3694H454.626L450.397 67.5551C451.805 65.4543 453.59 62.5897 454.435 60.6799Z" fill="#B4875E"/>
<path fill-rule="evenodd" clip-rule="evenodd" d="M468.805 39.0039H418.182V52.3723H468.805V39.0039ZM430.391 47.025V44.3513H455.844V47.025H430.391Z" fill="#B4875E"/>
<path fill-rule="evenodd" clip-rule="evenodd" d="M413.837 143.837V127.555H419.465C422.966 127.555 425.865 128.844 425.865 132.865C425.865 136.734 422.944 138.439 419.551 138.439H417.682V143.837H413.837ZM419.357 135.357H417.682V130.658H419.25C421.097 130.658 422.128 131.226 422.128 132.865C422.128 134.461 421.226 135.357 419.357 135.357Z" fill="#B4875E"/>
<path fill-rule="evenodd" clip-rule="evenodd" d="M431.88 127.555L426.919 143.837H430.828L431.746 140.1H436.482L437.4 143.837H441.439L436.477 127.555H431.88ZM435.403 135.707L435.741 137.083H432.487L432.825 135.707C433.218 134.149 433.631 132.329 434.006 130.674L434.007 130.671L434.008 130.669L434.05 130.483H434.136C434.339 131.268 434.537 132.116 434.735 132.964L434.735 132.965C434.956 133.91 435.176 134.854 435.403 135.707Z" fill="#B4875E"/>
<path fill-rule="evenodd" clip-rule="evenodd" d="M444.836 143.837V127.555H450.699C454.114 127.555 456.95 128.757 456.95 132.691C456.95 135.074 455.849 136.592 454.192 137.397L457.766 143.837H453.47L450.528 138.111H448.68V143.837H444.836ZM450.399 135.029H448.68V130.658H450.399C452.224 130.658 453.212 131.161 453.212 132.691C453.212 134.22 452.224 135.029 450.399 135.029Z" fill="#B4875E"/>
<path fill-rule="evenodd" clip-rule="evenodd" d="M263.551 127.555L258.59 143.837H262.499L263.417 140.1H268.153L269.071 143.837H273.11L268.148 127.555H263.551ZM267.074 135.707L267.412 137.083H264.158L264.496 135.707C264.889 134.15 265.302 132.331 265.677 130.677L265.677 130.676L265.677 130.675L265.678 130.673L265.721 130.483H265.807C266.01 131.268 266.208 132.116 266.406 132.963C266.627 133.909 266.847 134.854 267.074 135.707Z" fill="#B4875E"/>
<path fill-rule="evenodd" clip-rule="evenodd" d="M211.673 143.837L216.634 127.555H221.231L226.192 143.837H222.154L221.236 140.1H216.5L215.582 143.837H211.673ZM220.495 137.083L220.157 135.707C219.93 134.854 219.71 133.909 219.489 132.964C219.291 132.116 219.093 131.268 218.89 130.483H218.804L218.761 130.673C218.385 132.328 217.973 134.149 217.579 135.707L217.241 137.083H220.495Z" fill="#B4875E"/>
</svg>
